<?xml version="1.0" encoding="UTF-8"?>
<svg width="115px" height="48px" viewBox="0 0 115 48" version="1.1" xmlns="http://www.w3.org/2000/svg" xmlns:xlink="http://www.w3.org/1999/xlink">
    <title>logo_ita_negative_desktop</title>
    <g id="logo_ita_negative_desktop" stroke="none" stroke-width="1" fill="none" fill-rule="evenodd">
        <g id="Assets/Glyphs/Logo/Color" fill-rule="nonzero">
            <g id="21JE_SKTlogoITA_RGB" fill="#FFFFFF">
                <path d="M9.35911482,20.8212928 L9.35911482,0 L4.71267328,0.954372624 C1.93139644,1.47356785 -0.0633715012,3.93034467 0.00153926501,6.75665399 L0.00153926501,27.5969582 L4.64417537,26.6425856 C7.42610607,26.1235777 9.4221083,23.6672648 9.35911482,20.8403042 M66.4102628,5 C65.1306406,6.68582242 63.131707,7.67178314 61.0141496,7.66159696 L44.6165111,7.66159696 L44.6165111,27.5969582 L35.2551301,27.5969582 L35.2551301,7.64638783 L12.4224936,7.64638783 L12.4224936,0 L69.9645432,0 L66.4102628,5 Z M101.736157,24.9353612 L84.3795477,1.17870722 L65.04411,27.5969582 L53.7723984,27.5969582 L72.0118696,2.68060837 C73.304158,1.00813166 75.2971275,0.0258054542 77.4117881,0.0190114068 L94.764592,0.0190114068 L114.986697,27.5969582 L107.13227,27.5969582 C105.018,27.5930232 103.024999,26.6099889 101.736157,24.9353612 M104.605458,40.0228137 L102.554326,39.1368821 C101.937845,38.8631179 101.32517,38.3764259 101.32517,37.6159696 C101.32517,36.4524715 102.211837,36.0456274 103.227889,36.0456274 C104.594042,36.0456274 105.891697,36.8631179 106.91536,37.8212928 L106.91536,35.2927757 C105.923963,34.4496979 104.66292,33.9896777 103.36108,33.9961294 C100.971264,33.9961294 98.9886297,35.2243346 98.9886297,37.8212928 C98.9886297,39.5931559 100.084596,40.5513308 101.587745,41.243346 L103.840565,42.269962 C104.601653,42.608365 105.275216,43.0304183 105.275216,43.904943 C105.275216,45.2053232 104.114557,45.6121673 102.953898,45.6121673 C101.382251,45.6121673 100.221592,45 98.8554393,43.8403042 L98.8554393,46.365019 C100.008689,47.2565779 101.427273,47.7370773 102.8854,47.7301143 C105.412211,47.7301143 107.600339,46.1596958 107.600339,43.7034221 C107.600339,41.7224335 106.234186,40.6996198 104.594042,40.0152091 M85.7342842,34.2129278 L83.0210059,34.2129278 L87.9414391,41.5171103 L87.9414391,47.5247148 L90.3997529,47.5247148 L90.3997529,41.5171103 L95.388684,34.2129278 L92.5878806,34.2129278 L89.2390939,39.2661597 L85.7342842,34.2129278 Z M70.4288068,47.5209125 L71.798765,44.5855513 L77.4688697,44.5855513 L78.7665246,47.5209125 L81.3618343,47.5209125 L74.6109847,33.6539924 L67.8449134,47.513308 L70.4288068,47.5209125 Z M74.6147902,38.5779468 L76.5936187,42.6730038 L72.6968487,42.6730038 L74.6147902,38.5779468 Z M57.7376663,33.7984791 L54.1833859,42.3992395 L50.9069025,34.2091255 L48.3077874,34.2091255 L53.9131997,48 L57.6691684,39.1254753 L61.2919467,48 L66.9620515,34.2091255 L64.4352397,34.2091255 L61.1549509,42.3992395 L57.7376663,33.7984791 Z M41.4770236,38.3041825 C41.4770236,39.8250951 40.3848625,40.3536122 39.0149043,40.3536122 L37.6487515,40.3536122 L37.6487515,36.1825095 L39.0149043,36.1825095 C40.449555,36.1825095 41.4770236,36.8631179 41.4770236,38.2965779 M44.0723333,38.2965779 C44.0723333,35.5665399 41.7510153,34.2015209 39.220398,34.2015209 L35.2551301,34.2015209 L35.2551301,47.5095057 L37.6449461,47.5095057 L37.6449461,42.3269962 L38.8779085,42.3269962 L42.7023751,47.513308 L45.5031785,47.513308 L41.4047203,41.9163498 C43.0019344,41.4393647 44.0890626,39.9620972 44.0685279,38.2965779 M28.4890588,34.2015209 L25.9622471,34.2015209 L25.9622471,47.5095057 L28.4890588,47.5095057 L28.4890588,34.2015209 Z M9.9070981,47.5095057 L11.2732509,44.5741445 L16.9433556,44.5741445 L18.2410105,47.5095057 L20.9048181,47.5095057 L14.0550271,33.6501901 L7.29276121,47.5095057 L9.9070981,47.5095057 Z M14.0740543,38.5665399 L16.0452719,42.6653992 L12.1599182,42.6653992 L14.0740543,38.5665399 Z" id="Shape"></path>
            </g>
            <path d="M74.5424868,19.9315589 L68.94088,27.5969582 L80.216397,27.5969582 L87.758778,17.2889734 L79.9385999,17.2889734 C77.8252775,17.2969394 75.8339558,18.2791456 74.5424868,19.9505703" id="Path" fill="#BE210C"></path>
        </g>
    </g>
</svg>